<mxfile host="app.diagrams.net" modified="2023-06-11T21:08:44.155Z" agent="5.0 (Windows NT 10.0; Win64; x64) AppleWebKit/537.36 (KHTML, like Gecko) Chrome/114.0.0.0 Safari/537.36" etag="LcwWWtIBtPeSKWJFyJKJ" version="17.1.2" type="github">
  <diagram id="pFu-fsLspl0apVhG7Pa8" name="Page-1">
    <mxGraphModel dx="1094" dy="586" grid="1" gridSize="10" guides="1" tooltips="1" connect="1" arrows="1" fold="1" page="1" pageScale="1" pageWidth="827" pageHeight="1169" math="0" shadow="0">
      <root>
        <mxCell id="0" />
        <mxCell id="1" parent="0" />
        <mxCell id="vHCfNjeHGDSDvJQaW7TH-52" style="edgeStyle=orthogonalEdgeStyle;rounded=0;orthogonalLoop=1;jettySize=auto;html=1;entryX=0.5;entryY=0;entryDx=0;entryDy=0;dashed=1;dashPattern=1 4;fontSize=12;startArrow=blockThin;startFill=0;endArrow=none;endFill=0;" edge="1" parent="1" source="vHCfNjeHGDSDvJQaW7TH-1" target="vHCfNjeHGDSDvJQaW7TH-7">
          <mxGeometry relative="1" as="geometry" />
        </mxCell>
        <mxCell id="vHCfNjeHGDSDvJQaW7TH-1" value="" style="rounded=0;whiteSpace=wrap;html=1;" vertex="1" parent="1">
          <mxGeometry x="380" y="50" width="120" height="70" as="geometry" />
        </mxCell>
        <mxCell id="vHCfNjeHGDSDvJQaW7TH-3" value="" style="endArrow=none;html=1;rounded=0;entryX=1;entryY=0;entryDx=0;entryDy=0;exitX=0;exitY=0.5;exitDx=0;exitDy=0;" edge="1" parent="1" source="vHCfNjeHGDSDvJQaW7TH-1" target="vHCfNjeHGDSDvJQaW7TH-5">
          <mxGeometry width="50" height="50" relative="1" as="geometry">
            <mxPoint x="440" y="190" as="sourcePoint" />
            <mxPoint x="490" y="140" as="targetPoint" />
            <Array as="points" />
          </mxGeometry>
        </mxCell>
        <mxCell id="vHCfNjeHGDSDvJQaW7TH-4" value="&amp;lt;&amp;lt;interface&amp;gt;&amp;gt;&lt;br&gt;Promo" style="text;html=1;strokeColor=none;fillColor=none;align=center;verticalAlign=middle;whiteSpace=wrap;rounded=0;" vertex="1" parent="1">
          <mxGeometry x="405" y="50" width="70" height="30" as="geometry" />
        </mxCell>
        <mxCell id="vHCfNjeHGDSDvJQaW7TH-5" value="+receberPromo():void" style="text;html=1;strokeColor=none;fillColor=none;align=center;verticalAlign=middle;whiteSpace=wrap;rounded=0;" vertex="1" parent="1">
          <mxGeometry x="380" y="85" width="120" height="30" as="geometry" />
        </mxCell>
        <mxCell id="vHCfNjeHGDSDvJQaW7TH-6" value="" style="whiteSpace=wrap;html=1;aspect=fixed;" vertex="1" parent="1">
          <mxGeometry x="380" y="250" width="120" height="120" as="geometry" />
        </mxCell>
        <mxCell id="vHCfNjeHGDSDvJQaW7TH-7" value="Promo desconto" style="rounded=0;whiteSpace=wrap;html=1;" vertex="1" parent="1">
          <mxGeometry x="380" y="240" width="120" height="30" as="geometry" />
        </mxCell>
        <mxCell id="vHCfNjeHGDSDvJQaW7TH-8" value="" style="rounded=0;whiteSpace=wrap;html=1;" vertex="1" parent="1">
          <mxGeometry x="380" y="270" width="120" height="50" as="geometry" />
        </mxCell>
        <mxCell id="vHCfNjeHGDSDvJQaW7TH-9" value="- view: View" style="text;html=1;strokeColor=none;fillColor=none;align=left;verticalAlign=middle;whiteSpace=wrap;rounded=0;" vertex="1" parent="1">
          <mxGeometry x="380" y="270" width="100" height="20" as="geometry" />
        </mxCell>
        <mxCell id="vHCfNjeHGDSDvJQaW7TH-10" value="- livraria: Livraria" style="text;html=1;strokeColor=none;fillColor=none;align=left;verticalAlign=middle;whiteSpace=wrap;rounded=0;" vertex="1" parent="1">
          <mxGeometry x="380" y="290" width="100" height="20" as="geometry" />
        </mxCell>
        <mxCell id="vHCfNjeHGDSDvJQaW7TH-11" value="&lt;font style=&quot;font-size: 11px&quot;&gt;+ receberPromo():void&lt;/font&gt;" style="text;html=1;strokeColor=none;fillColor=none;align=left;verticalAlign=middle;whiteSpace=wrap;rounded=0;" vertex="1" parent="1">
          <mxGeometry x="380" y="320" width="120" height="20" as="geometry" />
        </mxCell>
        <mxCell id="vHCfNjeHGDSDvJQaW7TH-12" value="&lt;span style=&quot;font-size: 11px&quot;&gt;+ setView(View v): void&lt;/span&gt;" style="text;html=1;strokeColor=none;fillColor=none;align=left;verticalAlign=middle;whiteSpace=wrap;rounded=0;" vertex="1" parent="1">
          <mxGeometry x="380" y="340" width="120" height="20" as="geometry" />
        </mxCell>
        <mxCell id="vHCfNjeHGDSDvJQaW7TH-55" style="edgeStyle=orthogonalEdgeStyle;rounded=0;orthogonalLoop=1;jettySize=auto;html=1;entryX=0.5;entryY=0;entryDx=0;entryDy=0;fontSize=12;startArrow=block;startFill=0;endArrow=none;endFill=0;dashed=1;dashPattern=1 4;" edge="1" parent="1" source="vHCfNjeHGDSDvJQaW7TH-13" target="vHCfNjeHGDSDvJQaW7TH-17">
          <mxGeometry relative="1" as="geometry" />
        </mxCell>
        <mxCell id="vHCfNjeHGDSDvJQaW7TH-13" value="" style="rounded=0;whiteSpace=wrap;html=1;" vertex="1" parent="1">
          <mxGeometry x="54.76" y="120" width="160" height="100" as="geometry" />
        </mxCell>
        <mxCell id="vHCfNjeHGDSDvJQaW7TH-14" value="" style="endArrow=none;html=1;rounded=0;entryX=1.003;entryY=0.351;entryDx=0;entryDy=0;exitX=0.006;exitY=0.351;exitDx=0;exitDy=0;entryPerimeter=0;exitPerimeter=0;" edge="1" parent="1" source="vHCfNjeHGDSDvJQaW7TH-13" target="vHCfNjeHGDSDvJQaW7TH-13">
          <mxGeometry width="50" height="50" relative="1" as="geometry">
            <mxPoint x="114.76" y="260" as="sourcePoint" />
            <mxPoint x="164.76" y="210" as="targetPoint" />
            <Array as="points" />
          </mxGeometry>
        </mxCell>
        <mxCell id="vHCfNjeHGDSDvJQaW7TH-15" value="&lt;font style=&quot;font-size: 12px&quot;&gt;&amp;lt;&amp;lt;interface&amp;gt;&amp;gt;&lt;br&gt;Observer&lt;/font&gt;" style="text;html=1;strokeColor=none;fillColor=none;align=center;verticalAlign=middle;whiteSpace=wrap;rounded=0;" vertex="1" parent="1">
          <mxGeometry x="89.76" y="120" width="90" height="30" as="geometry" />
        </mxCell>
        <mxCell id="vHCfNjeHGDSDvJQaW7TH-16" value="+ update(List &amp;lt;Livro&amp;gt; I): void" style="text;html=1;strokeColor=none;fillColor=none;align=center;verticalAlign=middle;whiteSpace=wrap;rounded=0;" vertex="1" parent="1">
          <mxGeometry x="54.76" y="155" width="160" height="30" as="geometry" />
        </mxCell>
        <mxCell id="vHCfNjeHGDSDvJQaW7TH-17" value="View" style="rounded=0;whiteSpace=wrap;html=1;fontSize=12;" vertex="1" parent="1">
          <mxGeometry x="29.759999999999998" y="370" width="210" height="30" as="geometry" />
        </mxCell>
        <mxCell id="vHCfNjeHGDSDvJQaW7TH-18" value="" style="rounded=0;whiteSpace=wrap;html=1;fontSize=12;" vertex="1" parent="1">
          <mxGeometry x="29.759999999999998" y="400" width="210" height="60" as="geometry" />
        </mxCell>
        <mxCell id="vHCfNjeHGDSDvJQaW7TH-54" style="edgeStyle=orthogonalEdgeStyle;rounded=0;orthogonalLoop=1;jettySize=auto;html=1;entryX=0;entryY=0.5;entryDx=0;entryDy=0;fontSize=12;startArrow=classic;startFill=1;endArrow=none;endFill=0;" edge="1" parent="1" source="vHCfNjeHGDSDvJQaW7TH-19" target="vHCfNjeHGDSDvJQaW7TH-37">
          <mxGeometry relative="1" as="geometry" />
        </mxCell>
        <mxCell id="vHCfNjeHGDSDvJQaW7TH-19" value="" style="rounded=0;whiteSpace=wrap;html=1;fontSize=12;" vertex="1" parent="1">
          <mxGeometry x="29.759999999999998" y="460" width="210" height="50" as="geometry" />
        </mxCell>
        <mxCell id="vHCfNjeHGDSDvJQaW7TH-20" value="- promocao: Promo" style="text;html=1;strokeColor=none;fillColor=none;align=center;verticalAlign=middle;whiteSpace=wrap;rounded=0;fontSize=12;" vertex="1" parent="1">
          <mxGeometry x="29.759999999999998" y="400" width="210" height="20" as="geometry" />
        </mxCell>
        <mxCell id="vHCfNjeHGDSDvJQaW7TH-21" value="- produtos: List &amp;lt;Produto&amp;gt;" style="text;html=1;strokeColor=none;fillColor=none;align=center;verticalAlign=middle;whiteSpace=wrap;rounded=0;fontSize=12;" vertex="1" parent="1">
          <mxGeometry x="29.759999999999998" y="420" width="210" height="20" as="geometry" />
        </mxCell>
        <mxCell id="vHCfNjeHGDSDvJQaW7TH-22" value="+ setPromocao(Promocao p): void" style="text;html=1;strokeColor=none;fillColor=none;align=center;verticalAlign=middle;whiteSpace=wrap;rounded=0;fontSize=12;" vertex="1" parent="1">
          <mxGeometry x="29.759999999999998" y="460" width="210" height="20" as="geometry" />
        </mxCell>
        <mxCell id="vHCfNjeHGDSDvJQaW7TH-51" style="edgeStyle=orthogonalEdgeStyle;rounded=0;orthogonalLoop=1;jettySize=auto;html=1;fontSize=12;startArrow=blockThin;startFill=0;endArrow=none;endFill=0;dashed=1;dashPattern=1 4;" edge="1" parent="1" source="vHCfNjeHGDSDvJQaW7TH-23" target="vHCfNjeHGDSDvJQaW7TH-29">
          <mxGeometry relative="1" as="geometry" />
        </mxCell>
        <mxCell id="vHCfNjeHGDSDvJQaW7TH-23" value="" style="rounded=0;whiteSpace=wrap;html=1;" vertex="1" parent="1">
          <mxGeometry x="580" y="120" width="220" height="100" as="geometry" />
        </mxCell>
        <mxCell id="vHCfNjeHGDSDvJQaW7TH-24" value="" style="endArrow=none;html=1;rounded=0;entryX=1.003;entryY=0.351;entryDx=0;entryDy=0;exitX=0.006;exitY=0.351;exitDx=0;exitDy=0;entryPerimeter=0;exitPerimeter=0;" edge="1" parent="1" source="vHCfNjeHGDSDvJQaW7TH-23" target="vHCfNjeHGDSDvJQaW7TH-23">
          <mxGeometry width="50" height="50" relative="1" as="geometry">
            <mxPoint x="700" y="260" as="sourcePoint" />
            <mxPoint x="750" y="210" as="targetPoint" />
            <Array as="points" />
          </mxGeometry>
        </mxCell>
        <mxCell id="vHCfNjeHGDSDvJQaW7TH-25" value="&lt;font style=&quot;font-size: 12px&quot;&gt;&amp;lt;&amp;lt;interface&amp;gt;&amp;gt;&lt;br&gt;Subject&lt;/font&gt;" style="text;html=1;strokeColor=none;fillColor=none;align=center;verticalAlign=middle;whiteSpace=wrap;rounded=0;" vertex="1" parent="1">
          <mxGeometry x="655" y="120" width="90" height="30" as="geometry" />
        </mxCell>
        <mxCell id="vHCfNjeHGDSDvJQaW7TH-26" value="+ registerObserver(Observer o): void" style="text;html=1;strokeColor=none;fillColor=none;align=center;verticalAlign=middle;whiteSpace=wrap;rounded=0;" vertex="1" parent="1">
          <mxGeometry x="580" y="155" width="220" height="30" as="geometry" />
        </mxCell>
        <mxCell id="vHCfNjeHGDSDvJQaW7TH-28" value="+ notifyObserver(List&amp;lt;Produto&amp;gt; l):void" style="text;html=1;strokeColor=none;fillColor=none;align=center;verticalAlign=middle;whiteSpace=wrap;rounded=0;" vertex="1" parent="1">
          <mxGeometry x="580" y="185" width="220" height="30" as="geometry" />
        </mxCell>
        <mxCell id="vHCfNjeHGDSDvJQaW7TH-32" value="" style="edgeStyle=orthogonalEdgeStyle;rounded=0;orthogonalLoop=1;jettySize=auto;html=1;fontSize=12;" edge="1" parent="1" source="vHCfNjeHGDSDvJQaW7TH-29">
          <mxGeometry relative="1" as="geometry">
            <mxPoint x="690" y="470" as="targetPoint" />
          </mxGeometry>
        </mxCell>
        <mxCell id="vHCfNjeHGDSDvJQaW7TH-29" value="Livraria" style="rounded=0;whiteSpace=wrap;html=1;fontSize=12;" vertex="1" parent="1">
          <mxGeometry x="580" y="390" width="220" height="20" as="geometry" />
        </mxCell>
        <mxCell id="vHCfNjeHGDSDvJQaW7TH-30" value="" style="rounded=0;whiteSpace=wrap;html=1;fontSize=12;" vertex="1" parent="1">
          <mxGeometry x="580" y="410" width="220" height="60" as="geometry" />
        </mxCell>
        <mxCell id="vHCfNjeHGDSDvJQaW7TH-33" value="- produtos: List&amp;lt;Produto&amp;gt;" style="text;html=1;strokeColor=none;fillColor=none;align=left;verticalAlign=middle;whiteSpace=wrap;rounded=0;fontSize=12;" vertex="1" parent="1">
          <mxGeometry x="580" y="410" width="220" height="30" as="geometry" />
        </mxCell>
        <mxCell id="vHCfNjeHGDSDvJQaW7TH-34" value="- observers: List&amp;lt;Observer&amp;gt;" style="text;html=1;strokeColor=none;fillColor=none;align=left;verticalAlign=middle;whiteSpace=wrap;rounded=0;fontSize=12;" vertex="1" parent="1">
          <mxGeometry x="580" y="440" width="220" height="30" as="geometry" />
        </mxCell>
        <mxCell id="vHCfNjeHGDSDvJQaW7TH-35" value="" style="rounded=0;whiteSpace=wrap;html=1;fontSize=12;" vertex="1" parent="1">
          <mxGeometry x="580" y="470" width="220" height="120" as="geometry" />
        </mxCell>
        <mxCell id="vHCfNjeHGDSDvJQaW7TH-37" value="+ registerObserver(Observer o):void" style="text;html=1;strokeColor=none;fillColor=none;align=left;verticalAlign=middle;whiteSpace=wrap;rounded=0;fontSize=12;" vertex="1" parent="1">
          <mxGeometry x="580" y="470" width="220" height="30" as="geometry" />
        </mxCell>
        <mxCell id="vHCfNjeHGDSDvJQaW7TH-38" value="+ notifyObserver(List&amp;lt;Produto&amp;gt; l): void" style="text;html=1;strokeColor=none;fillColor=none;align=left;verticalAlign=middle;whiteSpace=wrap;rounded=0;fontSize=12;" vertex="1" parent="1">
          <mxGeometry x="580" y="500" width="220" height="30" as="geometry" />
        </mxCell>
        <mxCell id="vHCfNjeHGDSDvJQaW7TH-39" value="+ addProduto(Produto p):void" style="text;html=1;strokeColor=none;fillColor=none;align=left;verticalAlign=middle;whiteSpace=wrap;rounded=0;fontSize=12;" vertex="1" parent="1">
          <mxGeometry x="580" y="530" width="220" height="30" as="geometry" />
        </mxCell>
        <mxCell id="vHCfNjeHGDSDvJQaW7TH-40" value="+ buscaProduto(String nome): Produto" style="text;html=1;strokeColor=none;fillColor=none;align=left;verticalAlign=middle;whiteSpace=wrap;rounded=0;fontSize=12;" vertex="1" parent="1">
          <mxGeometry x="580" y="560" width="220" height="30" as="geometry" />
        </mxCell>
        <mxCell id="vHCfNjeHGDSDvJQaW7TH-53" style="edgeStyle=orthogonalEdgeStyle;rounded=0;orthogonalLoop=1;jettySize=auto;html=1;entryX=0;entryY=0;entryDx=0;entryDy=0;fontSize=12;startArrow=classic;startFill=1;endArrow=none;endFill=0;" edge="1" parent="1" source="vHCfNjeHGDSDvJQaW7TH-41" target="vHCfNjeHGDSDvJQaW7TH-39">
          <mxGeometry relative="1" as="geometry" />
        </mxCell>
        <mxCell id="vHCfNjeHGDSDvJQaW7TH-41" value="Produto" style="rounded=0;whiteSpace=wrap;html=1;fontSize=12;" vertex="1" parent="1">
          <mxGeometry x="380" y="620" width="120" height="30" as="geometry" />
        </mxCell>
        <mxCell id="vHCfNjeHGDSDvJQaW7TH-42" value="" style="rounded=0;whiteSpace=wrap;html=1;fontSize=12;" vertex="1" parent="1">
          <mxGeometry x="380" y="650" width="120" height="40" as="geometry" />
        </mxCell>
        <mxCell id="vHCfNjeHGDSDvJQaW7TH-43" value="- nome: String" style="text;html=1;strokeColor=none;fillColor=none;align=left;verticalAlign=middle;whiteSpace=wrap;rounded=0;fontSize=12;" vertex="1" parent="1">
          <mxGeometry x="380" y="650" width="120" height="20" as="geometry" />
        </mxCell>
        <mxCell id="vHCfNjeHGDSDvJQaW7TH-44" value="- preco: double" style="text;html=1;strokeColor=none;fillColor=none;align=left;verticalAlign=middle;whiteSpace=wrap;rounded=0;fontSize=12;" vertex="1" parent="1">
          <mxGeometry x="380" y="670" width="120" height="20" as="geometry" />
        </mxCell>
        <mxCell id="vHCfNjeHGDSDvJQaW7TH-45" value="" style="rounded=0;whiteSpace=wrap;html=1;fontSize=12;" vertex="1" parent="1">
          <mxGeometry x="380" y="690" width="120" height="60" as="geometry" />
        </mxCell>
        <mxCell id="vHCfNjeHGDSDvJQaW7TH-46" value="+ getNome(): string" style="text;html=1;strokeColor=none;fillColor=none;align=center;verticalAlign=middle;whiteSpace=wrap;rounded=0;fontSize=12;" vertex="1" parent="1">
          <mxGeometry x="380" y="690" width="120" height="20" as="geometry" />
        </mxCell>
        <mxCell id="vHCfNjeHGDSDvJQaW7TH-47" value="+ getPreço(): double" style="text;html=1;strokeColor=none;fillColor=none;align=center;verticalAlign=middle;whiteSpace=wrap;rounded=0;fontSize=12;" vertex="1" parent="1">
          <mxGeometry x="380" y="710" width="120" height="20" as="geometry" />
        </mxCell>
        <mxCell id="vHCfNjeHGDSDvJQaW7TH-48" value="" style="endArrow=classic;startArrow=classic;html=1;rounded=0;fontSize=12;exitX=0.75;exitY=0;exitDx=0;exitDy=0;entryX=0;entryY=0.5;entryDx=0;entryDy=0;" edge="1" parent="1" source="vHCfNjeHGDSDvJQaW7TH-17" target="vHCfNjeHGDSDvJQaW7TH-5">
          <mxGeometry width="50" height="50" relative="1" as="geometry">
            <mxPoint x="310" y="370" as="sourcePoint" />
            <mxPoint x="360" y="320" as="targetPoint" />
          </mxGeometry>
        </mxCell>
        <mxCell id="vHCfNjeHGDSDvJQaW7TH-49" value="" style="endArrow=classic;html=1;rounded=0;fontSize=12;entryX=0.25;entryY=0;entryDx=0;entryDy=0;exitX=1;exitY=0.5;exitDx=0;exitDy=0;startArrow=classic;startFill=1;" edge="1" parent="1" source="vHCfNjeHGDSDvJQaW7TH-5" target="vHCfNjeHGDSDvJQaW7TH-29">
          <mxGeometry width="50" height="50" relative="1" as="geometry">
            <mxPoint x="500" y="390" as="sourcePoint" />
            <mxPoint x="550" y="340" as="targetPoint" />
          </mxGeometry>
        </mxCell>
      </root>
    </mxGraphModel>
  </diagram>
</mxfile>
